<svg width="24" height="23" viewBox="0 0 24 23" fill="none" xmlns="http://www.w3.org/2000/svg">
<path d="M22.514 18.4695L15.7668 11.5002L22.514 4.53038C23.6606 3.49363 23.6606 1.81332 22.514 0.777013C21.3665 -0.259299 19.5075 -0.258857 18.3614 0.777455L11.874 7.4792L5.38666 0.777455C4.2401 -0.258415 2.38154 -0.258857 1.234 0.777013C0.0874456 1.81377 0.0874456 3.49407 1.234 4.53038L7.98121 11.5002L1.234 18.4695C0.0874456 19.5058 0.0874456 21.1861 1.23351 22.2224C2.38056 23.2592 4.23961 23.2592 5.38666 22.2224L11.874 15.5207L18.3614 22.2224C19.5089 23.2592 21.368 23.2592 22.5145 22.2224C23.6606 21.1861 23.6606 19.5058 22.514 18.4695Z" fill="#959595"/>
</svg>
