<svg width="23" height="16" viewBox="0 0 23 16" fill="none" xmlns="http://www.w3.org/2000/svg">
<path fill-rule="evenodd" clip-rule="evenodd" d="M20.6998 0H2.2994C1.02971 0 0 1.0114 0 2.25876V13.5538C0 14.801 1.02971 15.8125 2.2994 15.8125H20.6998C21.9703 15.8125 23 14.801 23 13.5538V2.25876C23 1.0114 21.9703 0 20.6998 0ZM4.31255 4.4564C4.31255 2.90449 5.48474 2.15628 6.46666 2.15628C7.48232 2.15628 8.62077 2.90449 8.62077 4.4564V5.6061C8.62077 7.15873 7.04292 7.90622 6.46666 7.90622C5.92061 7.90622 4.31255 7.15873 4.31255 5.6061V4.4564ZM10.7811 12.2188C10.7811 13.2618 10.4303 13.6562 9.34376 13.6562H3.59447C2.50789 13.6562 2.15692 13.2618 2.15692 12.2188C2.15547 12.2075 2.15692 11.5126 2.15692 11.5C2.15692 10.7103 2.51705 9.59707 3.79236 8.73514C4.32091 8.3779 4.98976 8.95416 5.75066 9.62446L5.9606 9.8344C5.96759 9.84139 6.19922 10.0625 6.4751 10.0625C6.75507 10.0625 6.97971 9.83191 6.97971 9.83191V9.83231L7.18748 9.62446C7.94838 8.95424 8.52391 8.38915 9.14579 8.73514C10.4907 9.48343 10.7811 10.7104 10.7811 11.5C10.7811 11.5126 10.7827 12.2075 10.7811 12.2188ZM20.125 12.2188H13.6562C13.259 12.2188 12.9376 11.8969 12.9376 11.5C12.9376 11.103 13.259 10.7812 13.6562 10.7812H20.125C20.5222 10.7812 20.8436 11.103 20.8436 11.5C20.8437 11.8969 20.5222 12.2188 20.125 12.2188ZM20.125 8.62503H13.6562C13.259 8.62503 12.9376 8.30321 12.9376 7.90622C12.9376 7.5093 13.259 7.18749 13.6562 7.18749H20.125C20.5222 7.18749 20.8436 7.5093 20.8436 7.90622C20.8437 8.30313 20.5222 8.62503 20.125 8.62503ZM20.125 5.03129H13.6562C13.259 5.03129 12.9376 4.70939 12.9376 4.31248C12.9376 3.91556 13.259 3.59374 13.6562 3.59374H20.125C20.5222 3.59374 20.8436 3.91556 20.8436 4.31248C20.8437 4.70939 20.5222 5.03129 20.125 5.03129Z" fill="#797979"/>
</svg>
