<svg width="31" height="29" viewBox="0 0 31 29" fill="none" xmlns="http://www.w3.org/2000/svg">
<path d="M30.0048 3.12199L27.2985 0.419446C27.0191 0.140022 26.6517 0 26.2849 0C25.9181 0 25.5514 0.139402 25.2719 0.418826L23.1072 2.57739L27.84 7.3022L30.0048 5.14425C30.5643 4.5854 30.5643 3.67898 30.0048 3.12199Z" fill="#797979"/>
<path d="M9.05469 16.6035L13.7882 21.329L26.8269 8.31438L22.0934 3.58896L9.05469 16.6035Z" fill="#797979"/>
<path d="M8.03297 17.6144L7.02246 23.3466L12.7665 22.3392L8.03297 17.6144Z" fill="#797979"/>
<path d="M21.1183 25.9019H3.27105V8.05474H15.8662L18.9702 4.95691H2.17628C1.07407 4.95691 0.172607 5.85838 0.172607 6.96058V26.9967C0.172607 28.0989 1.07407 29.0004 2.17628 29.0004H22.2124C23.3146 29.0004 24.2161 28.0989 24.2161 26.9967V12.6717L21.1183 15.764V25.9019Z" fill="#797979"/>
</svg>
