<svg width="20" height="16" viewBox="0 0 20 16" fill="none" xmlns="http://www.w3.org/2000/svg">
<path d="M20 13.3333C20 13.8009 19.8767 14.2345 19.6791 14.616L13.3643 7.07955L19.6106 1.25021C19.8536 1.66152 20 2.14467 20 2.66678V13.3333ZM10 8.44794L18.6916 0.335997C18.335 0.127725 17.9333 0 17.5001 0H2.49998C2.06619 0 1.66443 0.127725 1.3092 0.335997L10 8.44794ZM12.4232 7.95718L10.4113 9.83607C10.2936 9.94541 10.1471 10 10 10C9.85287 10 9.70633 9.94541 9.58865 9.83607L7.57633 7.95709L1.18163 15.5898C1.56493 15.8463 2.01413 16 2.49994 16H17.5001C17.9858 16 18.4352 15.8463 18.8184 15.5898L12.4232 7.95718ZM0.389439 1.25016C0.146493 1.66147 0 2.14463 0 2.66678V13.3333C0 13.801 0.122751 14.2345 0.321056 14.616L6.63513 7.07827L0.389439 1.25016Z" fill="#797979"/>
</svg>
