<svg width="40" height="32" viewBox="0 0 40 32" fill="none" xmlns="http://www.w3.org/2000/svg">
<g filter="url(#filter0_d_12_1325)">
<path d="M23.4304 20.0006C23.4304 16.691 26.3501 14.0014 29.9428 14.0014C30.7894 14.0014 31.6035 14.1514 32.3415 14.4314L33.0796 13.6915C34.5558 12.2117 35.3698 10.282 35.3698 8.27226C35.3698 4.08287 31.9616 0.463401 27.6092 0.0434622C24.7437 -0.226498 22.0193 0.773356 20.1742 2.70307C18.329 0.773356 15.6046 -0.226498 12.7391 0.0434622C8.38668 0.463401 4.97852 4.08287 4.97852 8.27226C4.97852 10.282 5.79257 12.2117 7.26872 13.6915L15.7349 22.2002C16.8745 23.3401 18.4918 24 20.1742 24C21.6177 24 23.0179 23.51 24.1033 22.6502C23.68 21.8503 23.4304 20.9504 23.4304 20.0006Z" fill="#04476C"/>
<path d="M33.1989 19.0005H31.0281V17.0008C31.0281 16.4509 30.5397 16.001 29.9427 16.001C29.3457 16.001 28.8573 16.4509 28.8573 17.0008V19.0005H26.6865C26.0895 19.0005 25.6011 19.4505 25.6011 20.0004C25.6011 20.5503 26.0895 21.0002 26.6865 21.0002H28.8573V23C28.8573 23.5499 29.3457 23.9998 29.9427 23.9998C30.5397 23.9998 31.0281 23.5499 31.0281 23V21.0002H33.1989C33.7959 21.0002 34.2843 20.5503 34.2843 20.0004C34.2843 19.4505 33.7959 19.0005 33.1989 19.0005Z" fill="#04476C"/>
</g>
<defs>
<filter id="filter0_d_12_1325" x="0.978516" y="0" width="38.3914" height="32" filterUnits="userSpaceOnUse" color-interpolation-filters="sRGB">
<feFlood flood-opacity="0" result="BackgroundImageFix"/>
<feColorMatrix in="SourceAlpha" type="matrix" values="0 0 0 0 0 0 0 0 0 0 0 0 0 0 0 0 0 0 127 0" result="hardAlpha"/>
<feOffset dy="4"/>
<feGaussianBlur stdDeviation="2"/>
<feComposite in2="hardAlpha" operator="out"/>
<feColorMatrix type="matrix" values="0 0 0 0 0 0 0 0 0 0 0 0 0 0 0 0 0 0 0.25 0"/>
<feBlend mode="normal" in2="BackgroundImageFix" result="effect1_dropShadow_12_1325"/>
<feBlend mode="normal" in="SourceGraphic" in2="effect1_dropShadow_12_1325" result="shape"/>
</filter>
</defs>
</svg>
