<svg width="24" height="35" viewBox="0 0 24 35" fill="none" xmlns="http://www.w3.org/2000/svg">
<path d="M5.43926 5.51804L10.2478 2.75903V3.31084H16.16L19.392 5.51804L21.0474 10.0901L18.3672 15.6081L14.9775 20.5743H9.30187L3.31088 15.1352L2.20728 8.59237L5.43926 5.51804Z" fill="white" stroke="black"/>
<path d="M11.5089 0C5.15266 0 0 4.89687 0 10.9375C0 21.875 11.509 35 11.509 35C11.509 35 23.018 21.875 23.018 10.9375C23.018 4.89687 17.8651 0 11.5089 0ZM11.5089 17.5C7.69516 17.5 4.60355 14.5619 4.60355 10.9375C4.60355 7.31311 7.69516 4.37502 11.5089 4.37502C15.3227 4.37502 18.4143 7.31311 18.4143 10.9375C18.4143 14.5619 15.3227 17.5 11.5089 17.5Z" fill="#04476C"/>
</svg>
