<svg width="60" height="120" viewBox="0 0 60 120" fill="none" xmlns="http://www.w3.org/2000/svg">
<path d="M33.1621 22.7724C39.4219 22.7724 44.4965 17.6978 44.4965 11.4379C44.4965 5.17811 39.4219 0.103516 33.1621 0.103516C26.9022 0.103516 21.8276 5.17811 21.8276 11.4379C21.8276 17.6978 26.9022 22.7724 33.1621 22.7724Z" fill="#F4F4F4"/>
<path d="M11.0685 82.2891L19.5375 76.5524V113.356C19.5375 116.797 22.3268 119.584 25.7654 119.584C29.205 119.584 31.9943 116.797 31.9943 113.356V67.8823H34.3292V113.356C34.3292 116.797 37.1185 119.584 40.5571 119.584C43.9967 119.584 46.786 116.797 46.786 113.356V37.9186C47.5023 39.4238 48.2217 41.4751 48.8136 44.2347C49.002 45.1142 49.1793 46.0567 49.337 47.0859C49.338 47.0914 49.3395 47.096 49.3405 47.1015C49.879 50.5945 50.2185 54.9621 50.2175 60.3714C50.2185 63.1485 50.1299 66.1998 49.9324 69.5507C49.816 71.5466 51.1742 73.284 53.0612 73.7122V74.7404V75.7721H51.0039C49.8911 75.7721 48.9889 76.6743 48.9889 77.7871V98.2737C48.9889 99.3865 49.8911 100.289 51.0039 100.289H57.3844C58.4972 100.289 59.3994 99.3865 59.3994 98.2737V77.7871C59.3994 76.6743 58.4972 75.7721 57.3844 75.7721H55.3281V74.6326V73.5727C56.795 73.0397 57.8816 71.6796 57.9788 70.0232C58.1844 66.5292 58.2781 63.3208 58.2781 60.3719C58.2781 54.6185 57.9189 49.846 57.3038 45.8567V45.8578C57.3033 45.8568 57.3028 45.8557 57.3028 45.8547C57.1351 44.7707 56.9477 43.744 56.7436 42.7693C55.3392 36.0704 53.1096 31.8786 50.5445 29.2213C47.6162 26.158 44.3196 25.5621 42.889 25.6014C42.5686 25.6014 42.3273 25.623 42.1756 25.6417C42.1726 25.6422 42.1706 25.6427 42.1676 25.6432H24.1539C24.1514 25.6427 24.1484 25.6422 24.1453 25.6417C23.9942 25.623 23.7539 25.6014 23.433 25.6014C22.0014 25.5621 18.7063 26.1575 15.7775 29.2224C13.2124 31.8791 10.9828 36.0709 9.57835 42.7703C9.37433 43.7455 9.18694 44.7727 9.01919 45.8573C9.01818 45.8613 9.01818 45.8648 9.01768 45.8688C8.4031 49.8555 8.04493 54.624 8.04493 60.3724C8.04493 63.3213 8.13813 66.5302 8.34416 70.0237C8.46909 72.1647 10.2453 73.8175 12.3641 73.8175C12.4427 73.8175 12.5223 73.8155 12.6034 73.8105C14.8249 73.6805 16.5201 71.7728 16.3906 69.5512C16.1926 66.2008 16.1045 63.149 16.1055 60.3719C16.1045 54.956 16.4455 50.5845 16.984 47.0894C16.9845 47.0884 16.985 47.0874 16.985 47.0864C17.1432 46.0572 17.32 45.1127 17.5084 44.2337C18.1008 41.4711 18.8207 39.4173 19.538 37.9121V53.4327L17.2359 54.9918C17.2062 55.6054 17.183 56.231 17.1639 56.8663L19.3244 55.4029L28.3643 68.7493L11.472 80.19L2.43313 66.8431L7.08025 63.6956C7.06665 63.0871 7.05657 62.4856 7.04952 61.8902L0.333496 66.4401L11.0685 82.2891ZM33.162 62.2574L28.3764 56.2124L31.1324 35.9006C31.7863 36.1454 32.4734 36.2734 33.161 36.2729H33.162C33.162 36.2729 33.164 36.2729 33.165 36.2729C33.8516 36.2729 34.5378 36.1449 35.1901 35.9001L37.9482 56.2124L33.162 62.2574ZM31.2472 29.7654H33.162H35.0758L36.0329 33.5435L35.8873 33.7732C35.0984 34.4311 34.1322 34.7606 33.161 34.7616C32.1898 34.7606 31.2246 34.4317 30.4367 33.7758L30.2901 33.5435L31.2472 29.7654Z" fill="#F4F4F4"/>
<path d="M18.205 60.2438L17.3792 60.8209L22.9225 68.7536L23.7483 68.1765L18.205 60.2438Z" fill="#F4F4F4"/>
<path d="M20.2186 70.5724L17.241 66.3081C17.2667 66.9297 17.2954 67.5579 17.3286 68.1926L19.393 71.1487L20.2186 70.5724Z" fill="#F4F4F4"/>
</svg>
