<svg width="14" height="19" viewBox="0 0 14 19" fill="none" xmlns="http://www.w3.org/2000/svg">
<path d="M11.6667 6.33333V4.75C11.6667 3.49022 11.175 2.28204 10.2998 1.39124C9.42466 0.500445 8.23768 0 7 0C5.76232 0 4.57534 0.500445 3.70017 1.39124C2.825 2.28204 2.33333 3.49022 2.33333 4.75V6.33333C1.71506 6.33521 1.12264 6.58604 0.685457 7.03103C0.248272 7.47602 0.00184651 8.07902 0 8.70833V14.25C0 15.5098 0.491665 16.718 1.36684 17.6088C2.242 18.4996 3.42899 19 4.66667 19H9.33333C10.571 19 11.758 18.4996 12.6332 17.6088C13.5083 16.718 14 15.5098 14 14.25V8.70833C13.9982 8.07902 13.7517 7.47602 13.3145 7.03103C12.8774 6.58604 12.2849 6.33521 11.6667 6.33333ZM3.88889 4.75C3.88889 3.91015 4.21667 3.10469 4.80011 2.51083C5.38356 1.91696 6.17488 1.58333 7 1.58333C7.82512 1.58333 8.61644 1.91696 9.19989 2.51083C9.78333 3.10469 10.1111 3.91015 10.1111 4.75V6.33333H3.88889V4.75ZM7.77778 14.25C7.77778 14.46 7.69583 14.6613 7.54997 14.8098C7.40411 14.9583 7.20628 15.0417 7 15.0417C6.79372 15.0417 6.59589 14.9583 6.45003 14.8098C6.30417 14.6613 6.22222 14.46 6.22222 14.25V11.0833C6.22222 10.8734 6.30417 10.672 6.45003 10.5235C6.59589 10.3751 6.79372 10.2917 7 10.2917C7.20628 10.2917 7.40411 10.3751 7.54997 10.5235C7.69583 10.672 7.77778 10.8734 7.77778 11.0833V14.25Z" fill="#797979"/>
</svg>
