<svg width="20" height="20" viewBox="0 0 20 20" fill="none" xmlns="http://www.w3.org/2000/svg">
<path d="M10 0C4.47711 0 0 4.47711 0 10C0 15.5229 4.47711 20 10 20C15.5229 20 20 15.5229 20 10C20 4.47711 15.5229 0 10 0ZM9.88089 4.29156C9.91311 4.154 10.0382 4.09244 10.0602 4.08156C10.1178 4.05311 10.1691 4.04889 10.2722 4.04C10.2722 4.04 10.3609 4.03422 10.4387 4.03644C13.0827 4.10733 15.3662 5.98445 15.6951 8.828C15.7171 9.018 15.7547 9.24267 15.7656 9.70533C15.7678 9.798 15.7693 9.96622 15.6556 10.0747C15.6042 10.1236 15.5453 10.1453 15.5042 10.156C15.4471 10.1433 15.3571 10.1144 15.288 10.0387C15.1944 9.936 15.1893 9.80244 15.1869 9.75667C15.1591 9.24044 15.086 8.72467 14.9673 8.22133C14.5278 6.35533 12.8338 4.88267 10.9256 4.66933C10.7038 4.64444 10.4813 4.62 10.2584 4.60978C10.1073 4.60289 9.95711 4.57489 9.898 4.47356C9.85511 4.39911 9.87622 4.31178 9.88089 4.29156ZM10.9193 6.04867C10.9144 6.04778 10.808 6.04711 10.6733 6.01178C10.5673 5.984 10.4847 5.96111 10.4218 5.88844C10.3622 5.81956 10.346 5.73511 10.3436 5.672C10.3571 5.62333 10.3858 5.55022 10.4518 5.49689C10.5449 5.42156 10.6624 5.426 10.7178 5.42867C12.2762 5.50644 13.1991 6.40889 13.1991 6.40889C13.2791 6.48711 13.614 6.82178 13.9053 7.36467C14.2567 8.01933 14.358 8.62889 14.3907 9.00222C14.3987 9.08733 14.3964 9.21356 14.3378 9.34333C14.3136 9.39667 14.2862 9.45555 14.222 9.502C14.144 9.55844 14.0596 9.56267 14.0233 9.56222C13.9831 9.54711 13.9329 9.52133 13.8887 9.47556C13.8316 9.41644 13.8053 9.352 13.8024 9.32533C13.7202 8.61 13.6082 7.91133 13.1682 7.30711C12.6096 6.54044 11.8184 6.20067 10.9193 6.04867ZM12.9573 8.76689C12.9422 8.97422 12.858 9.05067 12.8369 9.06867C12.774 9.12178 12.7013 9.13645 12.6573 9.14133C12.6064 9.13133 12.5342 9.10867 12.4756 9.05067C12.3887 8.96467 12.3776 8.84644 12.3731 8.80778C12.3524 8.62844 12.2238 8.05467 11.9302 7.79C11.7467 7.62444 11.4931 7.53711 11.1222 7.48333C10.9733 7.46178 10.8289 7.43156 10.7767 7.33289C10.7369 7.25756 10.764 7.17244 10.7722 7.14556C10.8331 6.94911 11.0713 6.89244 11.0902 6.88844C11.2484 6.91067 12.2598 7.06644 12.7222 7.81844C12.9724 8.22533 12.9658 8.65111 12.9573 8.76689ZM15.7424 14.3371C15.3631 14.7991 14.9967 15.2856 14.5473 15.6722C14.1616 16.004 13.6571 16.044 13.1551 15.8389C9.03089 14.1551 6.07289 11.2924 4.36689 7.16089C4.324 7.05733 4.28933 6.95022 4.25289 6.84422C3.93356 5.91689 4.02978 5.55667 4.79067 4.93289C5.03933 4.72889 5.30556 4.54422 5.57556 4.36889C6.02933 4.07422 6.52844 4.07778 6.87156 4.49111C7.44178 5.17844 7.98578 5.89756 8.45378 6.65689C8.80311 7.22378 8.67822 7.54467 8.16556 7.97156C8.04711 8.07022 7.92 8.15867 7.80133 8.25711C7.50467 8.50356 7.37933 8.79733 7.51022 9.18711C8.08378 10.896 9.28067 11.9764 10.9491 12.5504C11.1431 12.6171 11.4462 12.4673 11.6584 12.3469C11.8169 12.2569 11.9098 12.052 12.0324 11.8987C12.3638 11.4842 12.8998 11.3089 13.3422 11.5896C14.1331 12.0913 14.8909 12.6487 15.6342 13.2196C15.7936 13.342 15.8322 13.6213 15.9182 13.81C15.8487 14.0302 15.8391 14.2193 15.7424 14.3371Z" fill="#797979"/>
</svg>
