<svg width="27" height="27" viewBox="0 0 27 27" fill="none" xmlns="http://www.w3.org/2000/svg">
<path d="M26.341 23.1595L20.6293 17.4478C21.8095 15.6692 22.5002 13.5395 22.5002 11.2501C22.5002 5.0468 17.4534 0 11.2501 0C5.0468 0 0 5.0468 0 11.2501C0 17.4534 5.0468 22.5002 11.2501 22.5002C13.5395 22.5002 15.6692 21.8095 17.4478 20.6293L23.1595 26.341C24.037 27.2197 25.4635 27.2197 26.341 26.341C27.2197 25.4624 27.2197 24.0381 26.341 23.1595ZM3.37504 11.2501C3.37504 6.90757 6.90757 3.37504 11.2501 3.37504C15.5927 3.37504 19.1252 6.90757 19.1252 11.2501C19.1252 15.5927 15.5927 19.1252 11.2501 19.1252C6.90757 19.1252 3.37504 15.5927 3.37504 11.2501Z" fill="#959595"/>
</svg>
