<svg width="56" height="56" viewBox="0 0 56 56" fill="none" xmlns="http://www.w3.org/2000/svg">
<path d="M28 0C31.677 0 35.318 0.724241 38.7151 2.13137C42.1123 3.5385 45.1989 5.60097 47.799 8.20101C50.399 10.8011 52.4615 13.8877 53.8686 17.2849C55.2758 20.682 56 24.323 56 28C56 35.4261 53.05 42.548 47.799 47.799C42.548 53.05 35.4261 56 28 56C24.323 56 20.682 55.2758 17.2849 53.8686C13.8877 52.4615 10.8011 50.399 8.20101 47.799C2.94999 42.548 0 35.4261 0 28C0 20.5739 2.94999 13.452 8.20101 8.20101C13.452 2.94999 20.5739 0 28 0ZM16.8 15.988V25.34L36.792 28L16.8 30.66V40.012L44.8 28L16.8 15.988Z" fill="#00283E"/>
</svg>
