<svg width="26" height="23" viewBox="0 0 26 23" fill="none" xmlns="http://www.w3.org/2000/svg">
<path d="M12.4077 19.4264C12.775 19.218 13.2249 19.218 13.5922 19.4264L19.2221 22.6211C20.1389 23.1414 21.2329 22.3115 20.979 21.2884L19.5394 15.4876C19.4274 15.0366 19.586 14.5615 19.9463 14.2681L24.68 10.4134C25.5191 9.73013 25.0963 8.37263 24.0175 8.28671L17.6421 7.77893C17.2061 7.7442 16.8235 7.47494 16.6436 7.07621L14.0938 1.42455C13.6688 0.482531 12.3311 0.482535 11.9061 1.42456L9.35643 7.0762C9.17654 7.47494 8.79393 7.7442 8.35787 7.77893L1.98245 8.28671C0.903703 8.37263 0.480865 9.73013 1.32001 10.4134L6.05369 14.2681C6.41404 14.5615 6.57258 15.0366 6.46064 15.4876L5.021 21.2884C4.76709 22.3115 5.86112 23.1414 6.77791 22.6211L12.4077 19.4264Z" fill="#646464"/>
</svg>
