<svg width="103" height="120" viewBox="0 0 103 120" fill="none" xmlns="http://www.w3.org/2000/svg" style="color: #8E8E8E">
  <path d="M17.1853 41.0369C24.721 41.0369 30.8299 34.928 30.8299 27.3923C30.8299 19.8566 24.721 13.7477 17.1853 13.7477C9.64966 13.7477 3.54077 19.8566 3.54077 27.3923C3.54077 34.928 9.64966 41.0369 17.1853 41.0369Z" fill="currentColor"/>
  <path d="M52.1494 71.0573H24.6872V49.5648C24.6872 46.739 21.4807 44.4481 17.5251 44.4481C13.5696 44.4481 10.363 46.739 10.363 49.5648V80.2647C10.363 81.9757 11.5421 83.4855 13.3465 84.4146C14.2254 85.0255 15.2432 85.3815 16.3325 85.3815H47.2055V113.523C47.2055 116.821 49.6481 119.493 52.6619 119.493C55.6756 119.493 58.1186 116.821 58.1186 113.523V77.7063C58.1189 76.4458 57.7595 75.2785 57.1499 74.3144C56.0847 72.3548 54.2451 71.0573 52.1494 71.0573Z" fill="currentColor"/>
  <path d="M76.1537 58.0923L83.8023 55.5428L73.6817 28.5548V0.103516H68.3521V47.8591H73.6817V36.4625L80.1907 53.8199L67.3732 58.0923H41.0632V64.9147H68.3521V119.492H75.1742V64.9147H102.463V58.0923H76.1537Z" fill="currentColor"/>
  <path d="M6.95202 88.7922V44.4481H0.129883V88.7922V95.6147V119.492H6.95202V95.6147H37.6519V119.492H44.4744V95.6147V88.7922H37.6519H6.95202Z" fill="currentColor"/>
</svg>
