<svg width="25" height="28" viewBox="0 0 25 28" fill="none" xmlns="http://www.w3.org/2000/svg">
<path d="M18.585 28H5.8975C5.2376 28.0023 4.60105 27.756 4.1146 27.3101C3.62814 26.8641 3.32749 26.2514 3.2725 25.5938L1.75 7H22.75L21.2013 25.5938C21.1464 26.2499 20.847 26.8614 20.3624 27.3071C19.8778 27.7528 19.2434 28.0001 18.585 28Z" fill="#7C7C7C"/>
<path d="M22.75 3.5H16.625V2.625C16.625 1.92881 16.3485 1.26113 15.8562 0.768845C15.3639 0.276562 14.6962 0 14 0L10.5 0C9.80381 0 9.13613 0.276562 8.64385 0.768845C8.15157 1.26113 7.87501 1.92881 7.87501 2.625V3.5H1.75C1.28587 3.5 0.840752 3.68438 0.512564 4.01257C0.184375 4.34075 0 4.78587 0 5.25L0 7.00001H24.5V5.25C24.5 4.78587 24.3156 4.34075 23.9875 4.01257C23.6593 3.68438 23.2141 3.5 22.75 3.5ZM9.62501 2.625C9.62501 2.39294 9.71719 2.17038 9.88129 2.00628C10.0454 1.84219 10.2679 1.75 10.5 1.75H14C14.2321 1.75 14.4546 1.84219 14.6187 2.00628C14.7828 2.17038 14.875 2.39294 14.875 2.625V3.5H9.62501V2.625Z" fill="#474747"/>
<path d="M12.25 25.375C12.0179 25.375 11.7954 25.2828 11.6313 25.1187C11.4672 24.9546 11.375 24.7321 11.375 24.5V10.5C11.375 10.2679 11.4672 10.0454 11.6313 9.88128C11.7954 9.71719 12.0179 9.625 12.25 9.625C12.4821 9.625 12.7046 9.71719 12.8687 9.88128C13.0328 10.0454 13.125 10.2679 13.125 10.5V24.5C13.125 24.7321 13.0328 24.9546 12.8687 25.1187C12.7046 25.2828 12.4821 25.375 12.25 25.375Z" fill="#474747"/>
<path d="M16.625 25.375H16.5681C16.3367 25.3603 16.1205 25.2544 15.9671 25.0805C15.8137 24.9066 15.7356 24.6789 15.75 24.4475L16.625 10.4474C16.6322 10.3325 16.6619 10.2202 16.7125 10.1168C16.7631 10.0134 16.8336 9.92092 16.9199 9.84475C17.0063 9.76857 17.1067 9.71015 17.2157 9.67281C17.3246 9.63547 17.4398 9.61995 17.5547 9.62713C17.6696 9.63432 17.7819 9.66406 17.8853 9.71467C17.9888 9.76528 18.0812 9.83576 18.1574 9.92209C18.2335 10.0084 18.292 10.1089 18.3293 10.2178C18.3666 10.3267 18.3822 10.4419 18.375 10.5568L17.5 24.5568C17.4855 24.7789 17.387 24.9871 17.2244 25.1391C17.0619 25.2911 16.8475 25.3754 16.625 25.375Z" fill="#474747"/>
<path d="M7.875 25.375C7.65246 25.3754 7.4381 25.2911 7.27555 25.1391C7.113 24.9871 7.01446 24.7789 7 24.5568L6.125 10.5568C6.11782 10.4419 6.13334 10.3267 6.17068 10.2178C6.20801 10.1089 6.26644 10.0084 6.34261 9.92209C6.49645 9.74774 6.71325 9.64164 6.94531 9.62714C7.17738 9.61263 7.4057 9.69091 7.58005 9.84475C7.66638 9.92092 7.73686 10.0134 7.78747 10.1168C7.83807 10.2202 7.86782 10.3325 7.875 10.4474L8.75 24.4475C8.76438 24.6789 8.68628 24.9066 8.53288 25.0805C8.37948 25.2544 8.16331 25.3603 7.93187 25.375H7.875Z" fill="#474747"/>
</svg>
