<svg width="33" height="36" viewBox="0 0 33 36" fill="none" xmlns="http://www.w3.org/2000/svg">
<g filter="url(#filter0_d_12_2055)">
<path d="M22.585 28H9.8975C9.2376 28.0023 8.60105 27.756 8.1146 27.3101C7.62814 26.8641 7.32749 26.2514 7.2725 25.5938L5.75 7H26.75L25.2013 25.5938C25.1464 26.2499 24.847 26.8614 24.3624 27.3071C23.8778 27.7528 23.2434 28.0001 22.585 28Z" fill="#7C7C7C"/>
<path d="M26.75 3.5H20.625V2.625C20.625 1.92881 20.3485 1.26113 19.8562 0.768845C19.3639 0.276562 18.6962 0 18 0L14.5 0C13.8038 0 13.1361 0.276562 12.6439 0.768845C12.1516 1.26113 11.875 1.92881 11.875 2.625V3.5H5.75C5.28587 3.5 4.84075 3.68438 4.51256 4.01257C4.18437 4.34075 4 4.78587 4 5.25V7.00001H28.5V5.25C28.5 4.78587 28.3156 4.34075 27.9875 4.01257C27.6593 3.68438 27.2141 3.5 26.75 3.5ZM13.625 2.625C13.625 2.39294 13.7172 2.17038 13.8813 2.00628C14.0454 1.84219 14.2679 1.75 14.5 1.75H18C18.2321 1.75 18.4546 1.84219 18.6187 2.00628C18.7828 2.17038 18.875 2.39294 18.875 2.625V3.5H13.625V2.625Z" fill="#474747"/>
<path d="M16.25 25.375C16.0179 25.375 15.7954 25.2828 15.6313 25.1187C15.4672 24.9546 15.375 24.7321 15.375 24.5V10.5C15.375 10.2679 15.4672 10.0454 15.6313 9.88128C15.7954 9.71719 16.0179 9.625 16.25 9.625C16.4821 9.625 16.7046 9.71719 16.8687 9.88128C17.0328 10.0454 17.125 10.2679 17.125 10.5V24.5C17.125 24.7321 17.0328 24.9546 16.8687 25.1187C16.7046 25.2828 16.4821 25.375 16.25 25.375Z" fill="#474747"/>
<path d="M20.625 25.375H20.5681C20.3367 25.3603 20.1205 25.2544 19.9671 25.0805C19.8137 24.9066 19.7356 24.6789 19.75 24.4475L20.625 10.4474C20.6322 10.3325 20.6619 10.2202 20.7125 10.1168C20.7631 10.0134 20.8336 9.92092 20.9199 9.84475C21.0063 9.76857 21.1067 9.71015 21.2157 9.67281C21.3246 9.63547 21.4398 9.61995 21.5547 9.62713C21.6696 9.63432 21.7819 9.66406 21.8853 9.71467C21.9888 9.76528 22.0812 9.83576 22.1574 9.92209C22.2335 10.0084 22.292 10.1089 22.3293 10.2178C22.3666 10.3267 22.3822 10.4419 22.375 10.5568L21.5 24.5568C21.4855 24.7789 21.387 24.9871 21.2244 25.1391C21.0619 25.2911 20.8475 25.3754 20.625 25.375Z" fill="#474747"/>
<path d="M11.875 25.375C11.6525 25.3754 11.4381 25.2911 11.2756 25.1391C11.113 24.9871 11.0145 24.7789 11 24.5568L10.125 10.5568C10.1178 10.4419 10.1333 10.3267 10.1707 10.2178C10.208 10.1089 10.2664 10.0084 10.3426 9.92209C10.4964 9.74774 10.7132 9.64164 10.9453 9.62714C11.1774 9.61263 11.4057 9.69091 11.58 9.84475C11.6664 9.92092 11.7369 10.0134 11.7875 10.1168C11.8381 10.2202 11.8678 10.3325 11.875 10.4474L12.75 24.4475C12.7644 24.6789 12.6863 24.9066 12.5329 25.0805C12.3795 25.2544 12.1633 25.3603 11.9319 25.375H11.875Z" fill="#474747"/>
</g>
<defs>
<filter id="filter0_d_12_2055" x="0" y="0" width="32.5" height="36" filterUnits="userSpaceOnUse" color-interpolation-filters="sRGB">
<feFlood flood-opacity="0" result="BackgroundImageFix"/>
<feColorMatrix in="SourceAlpha" type="matrix" values="0 0 0 0 0 0 0 0 0 0 0 0 0 0 0 0 0 0 127 0" result="hardAlpha"/>
<feOffset dy="4"/>
<feGaussianBlur stdDeviation="2"/>
<feComposite in2="hardAlpha" operator="out"/>
<feColorMatrix type="matrix" values="0 0 0 0 0 0 0 0 0 0 0 0 0 0 0 0 0 0 0.25 0"/>
<feBlend mode="normal" in2="BackgroundImageFix" result="effect1_dropShadow_12_2055"/>
<feBlend mode="normal" in="SourceGraphic" in2="effect1_dropShadow_12_2055" result="shape"/>
</filter>
</defs>
</svg>
