<svg width="305" height="282" viewBox="0 0 305 282" fill="none" xmlns="http://www.w3.org/2000/svg">
<path d="M38.3672 249.07L210.41 250.312L163.992 156.246C160.898 149.438 152.238 149.438 148.523 155.625L128.098 191.52C123.762 197.707 115.102 198.949 110.156 193.371L102.105 184.711C94.0547 176.051 79.8281 177.281 73.6406 187.805L38.3672 249.07ZM68.0742 70.8398C51.9844 70.8398 38.9883 83.8359 38.9883 99.9258C38.9883 116.016 51.9844 129.012 68.0742 129.012C84.1641 129.012 97.1602 116.016 97.1602 99.9258C97.1602 83.8359 84.1641 70.8398 68.0742 70.8398ZM165.234 60.3281C165.234 101.789 198.035 135.832 238.875 138.305V245.988C238.875 265.172 223.406 281.262 203.602 281.262H35.2734C16.0898 281.262 0 265.793 0 245.988V73.9453C0 54.1406 16.0898 38.6719 35.2734 38.6719H168.328C166.477 45.4805 165.234 52.9102 165.234 60.3281ZM276.973 55.0781C278.824 52.6055 278.215 48.8906 275.73 46.418L246.023 25.3828C246.023 25.3828 246.023 24.7617 245.402 24.7617C245.402 24.1406 245.402 24.1406 244.781 24.1406H240.445L239.824 24.7617L210.738 48.2812C208.266 50.1328 207.645 53.8477 210.117 56.9414C211.969 59.4141 215.684 59.4141 218.156 57.5625L237.961 41.4727V94.6992C237.961 98.4141 240.434 101.508 243.527 101.508C246.621 101.508 249.094 98.4141 249.094 95.3203V41.4844L268.277 56.332C269.52 56.9531 270.75 57.5742 271.992 57.5742C273.844 57.5742 275.707 56.332 276.938 55.1016L276.973 55.0781ZM243.551 0C276.973 0 304.195 26.6133 304.195 60.0234C304.195 93.4336 276.961 120.668 243.551 120.668C210.129 120.668 182.906 93.4336 182.906 60.0234C182.906 26.6133 210.141 0 243.551 0Z" fill="#A8A3A3"/>
</svg>
