<svg width="39" height="28" viewBox="0 0 39 28" fill="none" xmlns="http://www.w3.org/2000/svg">
<path d="M32.8708 9.78522C31.7674 6.85275 28.9362 4.7663 25.6189 4.7663C24.8551 4.7663 24.1175 4.87712 23.4192 5.08326C21.5294 2.03164 18.1513 0 14.2989 0C8.45542 0 3.70104 4.67575 3.57711 10.4894C1.43823 11.7275 0 14.0403 0 16.6821C0 20.6286 3.20296 23.8315 7.14946 23.8315H14.2989V21.4484H7.14588C4.52084 21.4484 2.38315 19.3143 2.38315 16.6821C2.38315 14.4264 3.95246 12.533 6.06155 12.0397C5.99244 11.6119 5.95788 11.1722 5.95788 10.7242C5.95788 6.11755 9.69228 2.38315 14.2989 2.38315C18.0667 2.38315 21.2506 4.88189 22.2849 8.31124C23.2012 7.58319 24.357 7.14946 25.6189 7.14946C28.3786 7.14946 30.6533 9.23471 30.9488 11.9158H30.9846C33.6096 11.9158 35.7473 14.0499 35.7473 16.6821C35.7473 19.3095 33.6156 21.4484 30.9846 21.4484H23.8315V23.8315H30.981C34.9275 23.8315 38.1304 20.6226 38.1304 16.6821C38.1304 13.3874 35.9022 10.6134 32.8708 9.78522Z" fill="#DCD9D9"/>
<path d="M19.0653 10.7241L13.1074 17.8736H16.6822V27.4062H21.4485V17.8736H25.0232L19.0653 10.7241Z" fill="#DCD9D9"/>
</svg>
